PathFileType	4	(x/y/z)	S05_PSF_T03
DataRate	CameraRate	NumFrames	NumMarkers	Units	OrigDataRate	OrigDataStartFrame	OrigNumFrames
240	240	10	50	mm	240	308	410
Frame#	Time	Sternum			R.Acromium			L.Acromium			Top.Head			R.ASIS			L.ASIS			R.PSIS			L.PSIS			R.Great.Tro			L.Great.Tro			R.Iliac.Crest			L.Iliac.Crest			V.Sacral			R.Thigh.Upper.Post			R.Thigh.Lower.Ant			R.Thigh.Lower.Post			R.Thigh.Upper.Ant			R.Knee.Lat			R.Knee.Med			R.Shank.Upper.Post			R.Shank.Lower.Ant			R.Shank.Lower.Post			R.Shank.Upper.Ant			R.Ankle.Lat			R.Ankle.Med			R.Heel.Upper			R.Heel.Med			R.Heel.Lat			R.Toe.Lat			R.Toe.Med			R.Toe.Tip			L.Thigh.Upper.Post			L.Thigh.Lower.Ant			L.Thigh.Lower.Post			L.Thigh.Upper.Ant			L.Knee.Lat			L.Shank.Upper.Post			L.Shank.Lower.Ant			L.Shank.Lower.Post			L.Shank.Upper.Ant			L.Ankle.Lat			L.Ankle.Med			L.Heel.Upper			L.Heel.Med			L.Heel.Lat			L.Toe.Lat			L.Toe.Med			L.Toe.Tip			Cervical.Spine			Back			
		X1	Y1	Z1	X2	Y2	Z2	X3	Y3	Z3	X4	Y4	Z4	X5	Y5	Z5	X6	Y6	Z6	X7	Y7	Z7	X8	Y8	Z8	X9	Y9	Z9	X10	Y10	Z10	X11	Y11	Z11	X12	Y12	Z12	X13	Y13	Z13	X14	Y14	Z14	X15	Y15	Z15	X16	Y16	Z16	X17	Y17	Z17	X18	Y18	Z18	X19	Y19	Z19	X20	Y20	Z20	X21	Y21	Z21	X22	Y22	Z22	X23	Y23	Z23	X24	Y24	Z24	X25	Y25	Z25	X26	Y26	Z26	X27	Y27	Z27	X28	Y28	Z28	X29	Y29	Z29	X30	Y30	Z30	X31	Y31	Z31	X32	Y32	Z32	X33	Y33	Z33	X34	Y34	Z34	X35	Y35	Z35	X36	Y36	Z36	X37	Y37	Z37	X38	Y38	Z38	X39	Y39	Z39	X40	Y40	Z40	X41	Y41	Z41	X42	Y42	Z42	X43	Y43	Z43	X44	Y44	Z44	X45	Y45	Z45	X46	Y46	Z46	X47	Y47	Z47	X48	Y48	Z48	X49	Y49	Z49	X50	Y50	Z50	

308	1.2792	261.48	1257.7	267.5	166.1	1520.9	414.54	146.45	1525.4	88.258	167.59	1825.9	233.44	186.37	997.33	404.43	218.51	1012.2	155.83	-2.3583	1020.3	292.09	9.5714	1023.5	201.06	91.574	916.53	453.57	147.14	931.75	68.254	95.838	1085.1	431.75	126.69	1087.3	96.908	-11.482	987.14	256.4	136.19	696.95	469.08	196.42	620.88	436.51	126.78	607.72	454.43	202.72	709.39	451.7	107.1	512.81	443.01	136.03	486.82	315.85	-107.17	402.14	408.73	-115.51	311.54	407.89	-161.84	351.95	386.07	-59.576	361.98	429.43	-204.53	254.05	382.44	-168.3	262.2	301.22	-277.78	275	311.15	-288.81	246.77	278.27	-301.08	249.15	343.22	-218	114.41	410.91	-164.69	97.918	302.68	-115.79	73.281	358.12	194.22	696.46	79.181	284.71	640	108.2	220.68	606.68	98.035	266.15	727.29	89.053	253.19	521.78	107.58	207.58	315.81	110.2	279.89	264.34	116.82	212.09	244.71	130.08	271.38	333.58	102.62	254.52	108.63	142.24	290.63	132.32	225.84	204.48	64.82	200.95	218.81	43.116	234.63	205.87	35.772	174.35	385.03	39.478	112.94	411.48	63.786	228.22	470.82	76.135	171.07	109.57	1562.1	257.43	-0.5102	1286.2	266.55
309	1.2833	266.71	1258.3	267.26	171.32	1521.7	414.18	152.12	1526.2	87.837	173.1	1826.8	232.95	191.55	998.18	403.68	223.46	1012.9	155.04	2.7508	1020.8	291.71	14.566	1024.2	200.67	97.54	917.12	453.12	151.73	932.43	67.674	100.92	1085.7	431.24	131.74	1088.1	96.332	-6.3594	987.71	256	145.02	697.92	469.19	205.97	622.58	436.34	136.63	608.57	454.68	211.2	711.16	451.3	118.2	513.58	443.35	147.01	487.78	316.1	-96.406	404.14	408.58	-105.16	313.57	407.68	-151.34	354.21	385.92	-49.016	363.76	429.28	-194.44	256.54	382.08	-158	264.74	300.76	-267.93	277.4	310.74	-278.89	249.11	277.92	-291.11	251.5	342.88	-207.55	117.1	410.53	-154.25	100.71	302.31	-105.23	75.938	357.76	197.66	696.88	78.729	287.87	639.95	107.69	223.64	606.97	97.621	269.78	727.32	88.506	255.59	521.84	107.24	208.88	316.08	110.2	280.94	264.25	116.67	213.07	244.98	130.14	272.77	333.5	102.43	254.85	108.74	142.29	291.03	132.3	225.87	204.57	64.931	200.96	218.87	43.188	234.63	205.93	35.896	174.34	385.16	39.293	112.98	411.63	63.402	228.36	471.05	75.498	171.24	114.96	1563	256.98	4.7339	1287.1	265.83
310	1.2875	271.91	1259	267.02	176.52	1522.4	413.85	157.77	1526.9	87.436	178.59	1827.6	232.5	196.72	999.06	402.93	228.37	1013.6	154.25	7.8349	1021.4	291.34	19.535	1025	200.29	103.48	917.75	452.69	156.28	933.09	67.117	106	1086.4	430.72	136.74	1088.9	95.758	-1.2619	988.29	255.62	153.8	698.97	469.27	215.46	624.36	436.12	146.44	609.51	454.9	219.62	713.02	450.85	129.25	514.45	443.64	157.93	488.85	316.29	-85.589	406	408.41	-94.637	315.46	407.47	-140.72	356.26	385.75	-38.352	365.46	429.11	-184.12	258.75	381.73	-147.49	267.06	300.3	-257.89	279.44	310.34	-268.73	251.07	277.59	-280.89	253.47	342.57	-196.68	119.52	410.19	-143.41	103.29	301.95	-94.221	78.487	357.38	201.05	697.3	78.304	290.98	639.89	107.21	226.54	607.25	97.234	273.36	727.34	87.984	257.93	521.89	106.92	210.15	316.35	110.22	281.95	264.17	116.54	214.03	245.26	130.21	274.12	333.43	102.26	255.17	108.85	142.34	291.42	132.28	225.92	204.65	65.044	200.97	218.93	43.26	234.64	205.99	36.021	174.35	385.28	39.128	113.02	411.78	63.04	228.5	471.27	74.9	171.41	120.34	1563.8	256.55	9.9502	1288	265.11
311	1.2917	277.09	1259.6	266.78	181.7	1523.2	413.53	163.39	1527.6	87.054	184.06	1828.4	232.09	201.86	999.95	402.17	233.26	1014.4	153.46	12.896	1022	291.01	24.481	1025.7	199.94	109.39	918.43	452.29	160.78	933.74	66.582	111.08	1087.1	430.21	141.69	1089.6	95.186	3.8116	988.9	255.28	162.54	700.1	469.31	224.89	626.23	435.85	156.2	610.55	455.07	227.98	714.95	450.37	140.26	515.42	443.87	168.79	490.03	316.42	-74.718	407.7	408.22	-83.962	317.18	407.27	-129.99	358.08	385.58	-27.59	367.06	428.92	-173.56	260.69	381.4	-136.78	269.15	299.84	-247.64	281.1	309.97	-258.35	252.65	277.29	-270.45	255.04	342.29	-185.4	121.68	409.87	-132.17	105.65	301.6	-82.783	80.901	357	204.39	697.71	77.904	294.04	639.83	106.76	229.4	607.53	96.874	276.89	727.36	87.484	260.21	521.94	106.62	211.39	316.62	110.24	282.93	264.09	116.43	214.95	245.53	130.28	275.43	333.36	102.11	255.48	108.96	142.39	291.79	132.27	225.97	204.73	65.157	200.99	218.99	43.332	234.65	206.05	36.146	174.35	385.4	38.979	113.05	411.92	62.702	228.63	471.48	74.341	171.57	125.71	1564.6	256.15	15.14	1288.8	264.4
312	1.2958	282.25	1260.2	266.54	186.86	1523.9	413.24	168.99	1528.3	86.689	189.52	1829.2	231.71	207	1000.9	401.42	238.12	1015.1	152.68	17.937	1022.6	290.69	29.407	1026.4	199.61	115.28	919.15	451.9	165.24	934.37	66.071	116.18	1087.8	429.7	146.59	1090.3	94.618	8.8625	989.53	254.96	171.23	701.3	469.32	234.25	628.19	435.54	165.9	611.66	455.2	236.27	716.96	449.86	151.22	516.47	444.05	179.58	491.3	316.51	-63.8	409.24	408.02	-73.137	318.73	407.07	-119.15	359.68	385.4	-16.734	368.56	428.73	-162.78	262.33	381.07	-125.87	270.98	299.4	-237.2	282.4	309.61	-247.74	253.84	277	-259.76	256.21	342.03	-173.75	123.54	409.58	-120.56	107.76	301.26	-70.942	83.155	356.62	207.69	698.12	77.528	297.05	639.76	106.33	232.22	607.8	96.539	280.37	727.36	87.004	262.44	521.99	106.34	212.59	316.89	110.27	283.87	264.03	116.31	215.84	245.81	130.35	276.71	333.31	101.96	255.77	109.08	142.44	292.15	132.26	226.03	204.8	65.272	201.01	219.04	43.404	234.66	206.1	36.271	174.36	385.5	38.845	113.08	412.06	62.388	228.75	471.67	73.819	171.71	131.07	1565.5	255.76	20.304	1289.7	263.69
313	1.3	287.39	1260.8	266.29	192.01	1524.6	412.95	174.56	1529	86.339	194.96	1830	231.38	212.14	1001.8	400.67	242.95	1015.8	151.89	22.959	1023.2	290.39	34.316	1027.2	199.31	121.14	919.9	451.55	169.67	934.99	65.584	121.28	1088.6	429.2	151.45	1091	94.056	13.892	990.18	254.67	179.86	702.57	469.3	243.55	630.22	435.2	175.56	612.86	455.29	244.48	719.02	449.33	162.11	517.6	444.17	190.29	492.67	316.54	-52.839	410.6	407.81	-62.165	320.09	406.87	-108.2	361.03	385.22	-5.7889	369.93	428.52	-151.79	263.69	380.75	-114.77	272.55	298.97	-226.55	283.31	309.28	-236.91	254.63	276.74	-248.86	257	341.8	-161.74	125.11	409.33	-108.59	109.61	300.95	-58.724	85.23	356.27	210.94	698.52	77.173	300.01	639.69	105.92	234.99	608.07	96.226	283.8	727.36	86.541	264.6	522.05	106.08	213.76	317.17	110.3	284.78	263.98	116.21	216.71	246.1	130.42	277.95	333.26	101.83	256.04	109.2	142.49	292.49	132.26	226.08	204.86	65.387	201.03	219.08	43.477	234.67	206.15	36.394	174.36	385.6	38.722	113.11	412.18	62.097	228.87	471.84	73.336	171.84	136.41	1566.3	255.4	25.445	1290.6	262.99
314	1.3042	292.5	1261.3	266.05	197.13	1525.3	412.68	180.11	1529.7	86.004	200.38	1830.8	231.08	217.27	1002.7	399.93	247.77	1016.6	151.12	27.963	1023.9	290.12	39.209	1028	199.03	126.97	920.68	451.21	174.06	935.6	65.121	126.38	1089.4	428.7	156.27	1091.8	93.503	18.902	990.86	254.41	188.43	703.9	469.26	252.78	632.31	434.82	185.15	614.14	455.34	252.62	721.15	448.78	172.95	518.8	444.24	200.92	494.12	316.52	-41.841	411.78	407.59	-51.054	321.27	406.68	-97.153	362.13	385.03	5.2401	371.17	428.3	-140.58	264.74	380.45	-103.49	273.84	298.56	-215.71	283.85	308.96	-225.85	255.05	276.5	-237.73	257.39	341.58	-149.4	126.39	409.11	-96.293	111.2	300.67	-46.149	87.111	355.94	214.14	698.92	76.837	302.92	639.61	105.53	237.71	608.34	95.934	287.18	727.36	86.095	266.71	522.1	105.82	214.89	317.44	110.31	285.66	263.94	116.11	217.54	246.38	130.48	279.16	333.22	101.71	256.3	109.32	142.53	292.83	132.26	226.13	204.91	65.502	201.04	219.12	43.55	234.68	206.19	36.515	174.37	385.68	38.608	113.13	412.29	61.83	228.97	472.01	72.889	171.96	141.74	1567.1	255.05	30.563	1291.5	262.31
315	1.3083	297.59	1262	265.79	202.24	1526	412.41	185.62	1530.5	85.683	205.79	1831.6	230.82	222.4	1003.7	399.19	252.57	1017.3	150.35	32.952	1024.6	289.87	44.089	1028.7	198.77	132.77	921.5	450.89	178.43	936.19	64.683	131.5	1090.2	428.21	161.06	1092.5	92.96	23.894	991.56	254.17	196.94	705.28	469.18	261.94	634.47	434.41	194.68	615.48	455.35	260.69	723.32	448.23	183.71	520.07	444.26	211.47	495.65	316.45	-30.808	412.77	407.36	-39.808	322.24	406.5	-86.012	362.98	384.84	16.348	372.28	428.07	-129.18	265.49	380.16	-92.038	274.87	298.17	-204.68	284.02	308.66	-214.58	255.07	276.28	-226.38	257.4	341.38	-136.74	127.36	408.93	-83.68	112.52	300.41	-33.24	88.785	355.64	217.3	699.33	76.52	305.78	639.52	105.14	240.38	608.6	95.66	290.52	727.34	85.661	268.76	522.16	105.58	215.99	317.72	110.32	286.51	263.91	116.01	218.34	246.66	130.52	280.33	333.18	101.59	256.55	109.44	142.56	293.15	132.27	226.17	204.95	65.617	201.06	219.14	43.624	234.69	206.24	36.635	174.38	385.77	38.501	113.14	412.4	61.586	229.07	472.15	72.479	172.05	147.05	1568	254.72	35.66	1292.4	261.63
316	1.3125	302.66	1262.6	265.52	207.33	1526.7	412.15	191.11	1531.2	85.374	211.18	1832.4	230.6	227.52	1004.6	398.46	257.35	1018	149.6	37.927	1025.3	289.64	48.958	1029.5	198.53	138.54	922.33	450.59	182.77	936.78	64.268	136.62	1091	427.74	165.83	1093.2	92.431	28.868	992.28	253.96	205.38	706.71	469.09	271.03	636.68	433.99	204.14	616.88	455.33	268.69	725.54	447.67	194.4	521.39	444.22	221.94	497.25	316.33	-19.747	413.56	407.13	-28.435	323.02	406.33	-74.782	363.58	384.65	27.53	373.25	427.83	-117.57	265.93	379.88	-80.423	275.61	297.8	-193.45	283.81	308.37	-203.09	254.72	276.07	-214.83	257.02	341.2	-123.78	128.03	408.78	-70.767	113.55	300.19	-20.015	90.247	355.37	220.41	699.73	76.218	308.58	639.43	104.77	243.01	608.87	95.401	293.81	727.32	85.24	270.76	522.22	105.34	217.07	317.99	110.32	287.33	263.88	115.91	219.12	246.95	130.55	281.47	333.16	101.48	256.78	109.57	142.59	293.45	132.28	226.21	204.98	65.732	201.08	219.15	43.698	234.7	206.27	36.751	174.39	385.84	38.399	113.16	412.49	61.365	229.15	472.29	72.103	172.14	152.34	1568.8	254.39	40.736	1293.3	260.98
317	1.3167	307.71	1263.2	265.24	212.41	1527.4	411.9	196.56	1531.9	85.078	216.55	1833.2	230.42	232.64	1005.6	397.75	262.12	1018.7	148.87	42.89	1026.1	289.44	53.816	1030.3	198.32	144.29	923.19	450.3	187.1	937.36	63.878	141.74	1091.9	427.27	170.59	1093.9	91.917	33.827	993.02	253.76	213.76	708.19	468.97	280.05	638.94	433.54	213.54	618.34	455.27	276.61	727.8	447.1	205.01	522.77	444.14	232.32	498.91	316.18	-8.6613	414.16	406.89	-16.94	323.59	406.16	-63.47	363.91	384.46	38.78	374.07	427.59	-105.78	266.08	379.61	-68.65	276.08	297.45	-182.04	283.24	308.1	-191.39	253.98	275.89	-203.07	256.27	341.03	-110.55	128.42	408.68	-57.569	114.32	300.01	-6.4906	91.493	355.15	223.48	700.13	75.931	311.34	639.33	104.41	245.59	609.13	95.155	297.06	727.29	84.829	272.69	522.28	105.12	218.1	318.26	110.31	288.12	263.87	115.81	219.87	247.24	130.57	282.57	333.14	101.36	256.99	109.69	142.62	293.75	132.3	226.24	205	65.846	201.1	219.15	43.772	234.71	206.31	36.864	174.39	385.9	38.301	113.16	412.58	61.167	229.23	472.42	71.76	172.2	157.62	1569.6	254.08	45.794	1294.2	260.34
